<svg width="18" height="25" viewBox="0 0 18 25" fill="none" xmlns="http://www.w3.org/2000/svg">
<path d="M16.3333 22.3977V2.54961C16.3333 1.64443 15.3245 1.10451 14.5713 1.60662L12.7728 2.8056C12.3623 3.07937 11.8217 3.05591 11.4362 2.7476L9.24972 0.998342C8.83577 0.66721 8.24757 0.667224 7.83362 0.998356L5.64712 2.7476C5.26173 3.05591 4.72112 3.07937 4.31047 2.8056L2.51199 1.60662C1.75884 1.10451 0.75 1.64443 0.75 2.54961V22.3977C0.75 23.3028 1.75884 23.8428 2.51199 23.3406L4.31047 22.1417C4.72112 21.8678 5.26173 21.8913 5.64712 22.1996L7.83362 23.9489C8.24757 24.28 8.83577 24.28 9.24972 23.9489L11.4362 22.1996C11.8217 21.8913 12.3623 21.8678 12.7728 22.1417L14.5713 23.3406C15.3245 23.8428 16.3333 23.3028 16.3333 22.3977Z" fill="#CCC1B5" stroke="#958270" stroke-width="1.5"/>
<path d="M5 8.93188H12.0833Z" fill="#CCC1B5"/>
<path d="M5 8.93188H12.0833" stroke="#958270" stroke-width="1.5" stroke-linecap="round"/>
<path d="M5 12.4736H12.0833Z" fill="#CCC1B5"/>
<path d="M5 12.4736H12.0833" stroke="#958270" stroke-width="1.5" stroke-linecap="round"/>
<path d="M5 16.0154H12.0833Z" fill="#CCC1B5"/>
<path d="M5 16.0154H12.0833" stroke="#958270" stroke-width="1.5" stroke-linecap="round"/>
</svg>
