<svg width="19" height="18" viewBox="0 0 19 18" fill="none" xmlns="http://www.w3.org/2000/svg">
<path d="M5.09853 3.76204C6.13761 3.76204 6.97957 2.92004 6.97957 1.881C6.97957 0.841967 6.13764 0 5.09853 0C4.0595 0 3.21753 0.841967 3.21753 1.881C3.21753 2.92004 4.05946 3.76204 5.09853 3.76204Z" fill="#273C75"/>
<path d="M7.35213 13.1602C7.03879 13.115 6.75466 12.953 6.55395 12.7006C6.31518 12.4001 6.22794 12.0135 6.3145 11.6397L6.32577 11.591C5.96674 11.637 5.61843 11.5541 5.32947 11.3727C4.98815 11.1586 4.75072 10.8244 4.66081 10.4316C4.5709 10.0389 4.63935 9.63468 4.85349 9.2934L7.63022 4.86791C7.3513 4.46833 6.91932 4.2605 6.47473 4.2605H3.72234C3.16476 4.2605 2.67693 4.58784 2.43831 5.07125L0.0984944 9.8113C-0.134115 10.2826 0.059354 10.8533 0.530658 11.086C1.00207 11.3186 1.57272 11.1251 1.80537 10.6538L2.57129 9.10216L2.81833 12.3555V16.9245C2.81833 17.4501 3.24445 17.8762 3.77009 17.8762C4.29573 17.8762 4.72184 17.4501 4.72184 16.9245V12.6166H5.47541V16.9245C5.47541 17.4501 5.90153 17.8762 6.42717 17.8762C6.89307 17.8762 7.28048 17.5414 7.36261 17.0992C7.35595 17.0419 7.35217 16.9836 7.35217 16.9245V13.1602H7.35213Z" fill="#273C75"/>
<path d="M11.7818 14.2599C11.5457 14.2029 11.334 14.069 11.179 13.8739C10.9931 13.64 10.9112 13.3469 10.9472 13.0546C10.944 13.0546 10.9408 13.0547 10.9377 13.0547C10.811 13.0547 10.6859 13.0359 10.5657 13V16.9244C10.5657 17.4501 10.9918 17.8762 11.5175 17.8762C11.6742 17.8762 11.822 17.838 11.9524 17.7708C11.8441 17.5806 11.7818 17.3608 11.7818 17.1267V14.2599H11.7818Z" fill="#273C75"/>
<path d="M9.83226 11.0544L12.1744 7.32164C12.2992 7.12274 12.4731 6.96488 12.6751 6.85916C12.3434 6.50286 12.1399 6.02562 12.1399 5.50156C12.1399 5.34097 12.1595 5.18491 12.1955 5.03519L12.0788 4.84921C11.9052 4.57253 11.6126 4.416 11.3091 4.40405C11.2159 4.39127 9.15521 4.3921 9.06869 4.40409C8.76525 4.416 8.47261 4.57253 8.29902 4.84921L5.3249 9.58926C5.04551 10.0345 5.17997 10.6219 5.6252 10.9013C6.07058 11.1808 6.6579 11.0461 6.93721 10.601L7.23701 10.1232L6.85666 11.7654C6.80888 11.9717 6.85785 12.1885 6.9896 12.3543C7.12139 12.5201 7.32159 12.6167 7.53339 12.6167H7.90866V16.9246C7.90866 17.4502 8.33478 17.8763 8.86045 17.8763C9.38609 17.8763 9.81217 17.4502 9.81217 16.9246V12.6167H9.96304C9.58727 12.1939 9.5168 11.5572 9.83226 11.0544Z" fill="#273C75"/>
<path d="M17.9647 11.3502L15.6224 7.61737C15.4857 7.39952 15.2553 7.27619 15.0163 7.26683C14.9802 7.26186 14.5711 7.25952 14.1558 7.25952C13.7246 7.25952 13.2868 7.26204 13.252 7.26687C13.013 7.27623 12.7825 7.39955 12.6458 7.61744L10.3037 11.3502C10.0837 11.7009 10.1896 12.1635 10.5402 12.3834C10.891 12.6036 11.3536 12.4973 11.5734 12.1469L11.8095 11.7707L11.51 13.0639C11.4724 13.2264 11.5109 13.3971 11.6147 13.5277C11.7184 13.6583 11.8762 13.7343 12.0429 13.7343H12.3385V17.1268C12.3385 17.5408 12.674 17.8763 13.088 17.8763C13.5019 17.8763 13.8374 17.5408 13.8374 17.1268V13.7343H14.4309V17.1268C14.4309 17.5408 14.7665 17.8763 15.1804 17.8763C15.5943 17.8763 15.9298 17.5408 15.9298 17.1268V13.7343H16.2253C16.392 13.7343 16.5497 13.6583 16.6534 13.5277C16.7572 13.3971 16.7958 13.2264 16.7581 13.0639L16.4587 11.7705L16.695 12.147C16.915 12.4978 17.3778 12.6034 17.7281 12.3834C18.0788 12.1634 18.1847 11.7008 17.9647 11.3502Z" fill="#273C75"/>
<path d="M10.189 3.98789C11.1951 3.98789 12.0147 3.17232 12.0147 2.16216C12.0147 1.15369 11.1975 0.336426 10.189 0.336426C9.18044 0.336426 8.36328 1.15366 8.36328 2.16216C8.36328 3.1725 9.18303 3.98789 10.189 3.98789Z" fill="#273C75"/>
<path d="M13.351 6.70701C13.5764 6.8537 13.8453 6.93926 14.1343 6.93926C14.4234 6.93926 14.6923 6.85367 14.9177 6.7069C15.3114 6.45045 15.572 6.00659 15.572 5.50147C15.572 4.70729 14.9285 4.06372 14.1343 4.06372C13.3401 4.06372 12.6965 4.70732 12.6965 5.50147C12.6965 6.00666 12.9571 6.4506 13.351 6.70701Z" fill="#273C75"/>
</svg>
