<svg width="19" height="19" viewBox="0 0 19 19" fill="none" xmlns="http://www.w3.org/2000/svg">
<path fill-rule="evenodd" clip-rule="evenodd" d="M17.0457 9.172L16.427 8.67705V16.8229H17.4166C17.7445 16.8229 18.0103 17.0887 18.0103 17.4167C18.0103 17.7446 17.7445 18.0104 17.4166 18.0104H1.58327C1.25535 18.0104 0.989525 17.7446 0.989525 17.4167C0.989525 17.0887 1.25535 16.8229 1.58327 16.8229H2.57286V8.67705L1.95419 9.172C1.69812 9.37688 1.32448 9.33532 1.11963 9.0793C0.914783 8.82319 0.956298 8.44952 1.21236 8.24472L7.64537 3.0983C8.72963 2.2309 10.2703 2.2309 11.3545 3.0983L17.7875 8.24472C18.0436 8.44952 18.0851 8.82319 17.8803 9.0793C17.6754 9.33532 17.3018 9.37688 17.0457 9.172ZM9.49992 5.34377C8.29753 5.34377 7.32286 6.31849 7.32286 7.52085C7.32286 8.7232 8.29753 9.6979 9.49992 9.6979C10.7023 9.6979 11.677 8.7232 11.677 7.52085C11.677 6.31849 10.7023 5.34377 9.49992 5.34377ZM10.8821 10.5383C10.5189 10.4896 10.0654 10.4896 9.53903 10.4896H9.46089C8.93451 10.4896 8.48096 10.4896 8.11783 10.5383C7.7286 10.5907 7.35551 10.7087 7.05291 11.0114C6.75029 11.3139 6.63229 11.687 6.57996 12.0762C6.53114 12.4394 6.53116 12.8929 6.53119 13.4193V16.8229H7.71869H11.2812H12.4687V13.4193V13.3214C12.4685 12.8365 12.4657 12.4167 12.4199 12.0762C12.3676 11.687 12.2496 11.3139 11.947 11.0114C11.6444 10.7087 11.2713 10.5907 10.8821 10.5383Z" fill="#273C75"/>
<g opacity="0.5">
<path fill-rule="evenodd" clip-rule="evenodd" d="M8.5105 7.52083C8.5105 6.9743 8.95351 6.53125 9.50008 6.53125C10.0466 6.53125 10.4897 6.9743 10.4897 7.52083C10.4897 8.0674 10.0466 8.51042 9.50008 8.51042C8.95351 8.51042 8.5105 8.0674 8.5105 7.52083Z" fill="#273C75"/>
<path fill-rule="evenodd" clip-rule="evenodd" d="M8.5105 7.52083C8.5105 6.9743 8.95351 6.53125 9.50008 6.53125C10.0466 6.53125 10.4897 6.9743 10.4897 7.52083C10.4897 8.0674 10.0466 8.51042 9.50008 8.51042C8.95351 8.51042 8.5105 8.0674 8.5105 7.52083Z" fill="#273C75"/>
</g>
<path opacity="0.5" d="M9.53911 10.4895C10.0654 10.4895 10.519 10.4894 10.8821 10.5383C11.2714 10.5906 11.6444 10.7086 11.947 11.0112C12.2496 11.3139 12.3677 11.6869 12.42 12.0762C12.4657 12.4166 12.4686 12.8365 12.4688 13.3213V16.8228H6.53125V13.4191C6.53123 12.8928 6.5312 12.4393 6.58003 12.0762C6.63235 11.6869 6.75036 11.3139 7.05297 11.0112C7.35558 10.7086 7.72866 10.5906 8.11791 10.5383C8.48105 10.4894 8.93459 10.4895 9.46089 10.4895H9.53911Z" fill="#273C75"/>
<path opacity="0.5" d="M12.6666 2.375H14.6458C14.8643 2.375 15.0416 2.55222 15.0416 2.77083V6.04798L12.2708 3.83131V2.77083C12.2708 2.55222 12.448 2.375 12.6666 2.375Z" fill="#273C75"/>
</svg>
