<svg width="26" height="26" viewBox="0 0 26 26" fill="none" xmlns="http://www.w3.org/2000/svg">
<path d="M13.964 6.36987H5.53566C3.68316 6.36987 2.1665 7.88653 2.1665 9.73903V22.0457C2.1665 23.6166 3.29317 24.2882 4.669 23.5191L8.92649 21.1466C9.38149 20.8974 10.1182 20.8974 10.5623 21.1466L14.8198 23.5191C16.1957 24.2882 17.3223 23.6166 17.3223 22.0457V9.73903C17.3332 7.88653 15.8165 6.36987 13.964 6.36987Z" stroke="#7F8FA6" stroke-width="1.5" stroke-linecap="round" stroke-linejoin="round"/>
<path d="M17.3332 9.73903V22.0457C17.3332 23.6166 16.2065 24.2774 14.8307 23.5191L10.5732 21.1466C10.1182 20.8974 9.38149 20.8974 8.92649 21.1466L4.669 23.5191C3.29317 24.2774 2.1665 23.6166 2.1665 22.0457V9.73903C2.1665 7.88653 3.68316 6.36987 5.53566 6.36987H13.964C15.8165 6.36987 17.3332 7.88653 17.3332 9.73903Z" stroke="#7F8FA6" stroke-width="1.5" stroke-linecap="round" stroke-linejoin="round"/>
<path d="M23.8332 5.53581V17.8425C23.8332 19.4133 22.7065 20.0742 21.3307 19.3158L17.3332 17.0842V9.73915C17.3332 7.88665 15.8165 6.36999 13.964 6.36999H8.6665V5.53581C8.6665 3.68331 10.1832 2.16666 12.0357 2.16666H20.464C22.3165 2.16666 23.8332 3.68331 23.8332 5.53581Z" stroke="#7F8FA6" stroke-width="1.5" stroke-linecap="round" stroke-linejoin="round"/>
</svg>
