<svg width="23" height="23" viewBox="0 0 23 23" fill="none" xmlns="http://www.w3.org/2000/svg">
<path d="M11.3193 6.44634C12.2904 4.70428 12.776 3.83325 13.5019 3.83325C14.2278 3.83325 14.7133 4.70428 15.6844 6.44634L15.9357 6.89703C16.2116 7.39207 16.3496 7.63959 16.5647 7.80291C16.7799 7.96622 17.0478 8.02684 17.5837 8.14809L18.0715 8.25847C19.9573 8.68514 20.9002 8.89847 21.1245 9.61986C21.3488 10.3412 20.7061 11.0929 19.4205 12.5962L19.0878 12.9851C18.7225 13.4123 18.5399 13.6259 18.4577 13.8902C18.3755 14.1544 18.4031 14.4394 18.4584 15.0093L18.5086 15.5283C18.7031 17.5341 18.8002 18.537 18.2129 18.9828C17.6256 19.4286 16.7428 19.0221 14.9772 18.2091L14.5204 17.9989C14.0186 17.7678 13.7678 17.6523 13.5019 17.6523C13.236 17.6523 12.9851 17.7678 12.4834 17.9989L12.0266 18.2091C10.2609 19.0221 9.37811 19.4286 8.79082 18.9828C8.20353 18.537 8.30071 17.5341 8.49507 15.5283L8.54536 15.0093C8.60059 14.4394 8.6282 14.1544 8.54604 13.8902C8.46386 13.6259 8.2812 13.4123 7.91588 12.9851L7.58329 12.5962C6.2977 11.0929 5.65491 10.3412 5.87923 9.61986C6.10355 8.89847 7.04643 8.68514 8.93219 8.25847L9.42006 8.14809C9.95588 8.02684 10.2238 7.96622 10.439 7.80291C10.6541 7.63959 10.7921 7.39207 11.068 6.89703L11.3193 6.44634Z" fill="#273C75"/>
<path opacity="0.5" fill-rule="evenodd" clip-rule="evenodd" d="M8.38118 4.98568C6.48213 4.43845 4.44503 4.7275 2.47957 5.87853L2.28008 5.99536C1.93755 6.19595 1.49725 6.08089 1.29664 5.73835C1.09604 5.39581 1.21111 4.95551 1.55365 4.75491L1.75313 4.63809C4.0152 3.31335 6.45639 2.93503 8.77921 3.60439L8.97843 3.66179C9.35987 3.77172 9.57998 4.17003 9.47006 4.55146C9.36014 4.9329 8.96183 5.15301 8.5804 5.04309L8.38118 4.98568ZM4.63485 9.52248C4.66855 9.91802 4.37523 10.266 3.97971 10.2996C3.83293 10.3122 3.72039 10.3193 3.62608 10.3253C3.45609 10.3361 3.34533 10.3431 3.19998 10.371C3.01167 10.4072 2.76717 10.4836 2.32347 10.7055C1.96841 10.8831 1.53668 10.7391 1.35916 10.3841C1.18164 10.029 1.32554 9.59727 1.6806 9.41979C2.19521 9.16248 2.56872 9.02842 2.92901 8.95927C3.16562 8.91385 3.40987 8.89795 3.62952 8.88364C3.70934 8.87844 3.78591 8.87345 3.85769 8.86734C4.2532 8.83364 4.60116 9.12696 4.63485 9.52248ZM5.67138 15.1955C4.53676 14.9295 3.34134 15.1933 2.44686 15.898C2.13507 16.1437 1.68315 16.0901 1.43747 15.7783C1.1918 15.4665 1.2454 15.0146 1.5572 14.7689C2.80092 13.7889 4.4459 13.4319 5.99935 13.7958C6.38583 13.8864 6.62572 14.2732 6.53516 14.6597C6.4446 15.0462 6.05787 15.286 5.67138 15.1955Z" fill="#273C75"/>
</svg>
