<svg width="26" height="26" viewBox="0 0 26 26" fill="none" xmlns="http://www.w3.org/2000/svg">
<path d="M23.6667 13.0542V14.7021C23.6667 18.9279 23.6667 21.041 22.3974 22.3538C21.1283 23.6667 19.0855 23.6667 15 23.6667H10.6667C6.58116 23.6667 4.53841 23.6667 3.2692 22.3538C2 21.041 2 18.9279 2 14.7021V13.0542C2 10.5751 2 9.33555 2.56247 8.30797C3.12493 7.28039 4.15253 6.64264 6.2077 5.36714L8.37437 4.02244C10.5468 2.67415 11.6331 2 12.8333 2C14.0336 2 15.1198 2.67415 17.2923 4.02244L19.459 5.36713C21.5142 6.64264 22.5417 7.28039 23.1042 8.30797" stroke="#7B6855" stroke-width="1.5" stroke-linecap="round"/>
<path d="M16.0833 19.333H9.58325Z" fill="#CCC1B5"/>
<path  d="M16.0833 19.333H9.58325" stroke="#7B6855" stroke-width="1.5" stroke-linecap="round"/>
</svg>
